/* XPM */
static char *Y2VpbGluZyUyODElMjk_[] = {
/* columns rows colors chars-per-pixel */
"64 64 127 2 ",
"   c #BFBFBD",
".  c #BFC0BB",
"X  c #C2C3BD",
"o  c #C5C6C1",
"O  c #C7C8C2",
"+  c #CACBC6",
"@  c #CECFCA",
"#  c #CFD0CB",
"$  c #D2D3CE",
"%  c #D5D6D1",
"&  c #D7D8D3",
"*  c #D9DBD5",
"=  c #D7D9D8",
"-  c #DDDEDA",
";  c #DFE0DC",
":  c #E1E2DE",
">  c #DFE1E1",
",  c #E4E5E3",
"<  c #E7E8E5",
"1  c #E8EAE7",
"2  c #E9EBE6",
"3  c #EAEBE6",
"4  c #E9EAE6",
"5  c #EAECE7",
"6  c #EBECE7",
"7  c #E9E9E6",
"8  c #E7E9E8",
"9  c #E7E9E8",
"0  c #E9E9E9",
"q  c #E9EBE8",
"w  c #E8EAE9",
"e  c #EAEAE8",
"r  c #EBEBE9",
"t  c #E8E9EB",
"y  c #E9EBEA",
"u  c #EAEAEA",
"i  c #EBEDE8",
"p  c #EAECE9",
"a  c #EBEDEA",
"s  c #EAECEB",
"d  c #ECEEE9",
"f  c #EDEEE9",
"g  c #EEEFE9",
"h  c #ECECEA",
"j  c #EDEDEB",
"k  c #EDEFEA",
"l  c #ECEEEB",
"z  c #E9EAEC",
"x  c #EBEDEC",
"c  c gray93",
"v  c #EDEFEC",
"b  c #ECEEED",
"n  c #EEEEEC",
"m  c #EFEFED",
"M  c #EDEFEE",
"N  c #EFEFEF",
"B  c #ECECEA",
"V  c #EEF0EB",
"C  c #EEF0ED",
"Z  c #EFF1EE",
"A  c #EEF0EF",
"S  c #EFF0ED",
"D  c #F0F1EB",
"F  c #F0F1EC",
"G  c #F0F2ED",
"H  c #F1F2ED",
"J  c #F0F0EE",
"K  c #F1F1EF",
"L  c #F1F3EE",
"P  c #F0F2EF",
"I  c #F2F3EE",
"U  c #F1F1EE",
"Y  c #EFF1F0",
"T  c #EFF0F2",
"R  c #EFF1F0",
"E  c gray94",
"W  c #F1F1F1",
"Q  c #F1F3F0",
"!  c #F0F2F1",
"~  c #F2F2F0",
"^  c #F3F3F1",
"/  c #F0F1F3",
"(  c #F1F3F2",
")  c gray95",
"_  c #F3F5F0",
"`  c #F2F4F1",
"'  c #F3F5F2",
"]  c #F2F4F3",
"[  c #F4F5F0",
"{  c #F4F4F2",
"}  c #F5F5F3",
"|  c #F5F7F2",
" . c #F4F6F3",
".. c #F1F2F4",
"X. c #F2F3F5",
"o. c #F3F5F4",
"O. c #F3F4F6",
"+. c #F4F4F4",
"@. c gray96",
"#. c #F5F7F4",
"$. c #F4F6F5",
"%. c #F6F6F4",
"&. c #F4F5F7",
"*. c #F5F7F6",
"=. c gray97",
"-. c #F3F4F1",
";. c #F6F8F5",
":. c #F7F9F6",
">. c #F6F8F7",
",. c #F8FAF5",
"<. c #F9FAF5",
"1. c #F8F8F6",
"2. c #F9F9F7",
"3. c #F8FAF7",
"4. c #FAFBF6",
"5. c #F7F9F8",
"6. c #F9FBF8",
"7. c #F8FAF9",
"8. c #FAFAF8",
"9. c #F9FBFA",
"0. c #FAFCF9",
"q. c #FBFDFA",
"w. c #FAFCFB",
"e. c #FBFDFC",
"r. c #FCFEFD",
"t. c #FDFFFE",
"y. c #FEFFFF",
/* pixels */
"5., e.t.T P >.w.] w.o.9.5.o.b 8 *.< T 7.7.w.9.5.T 5.5.e.7.< Z _ Z Z > | o.e.s e.T o.b T Z *.s >.*.*.*.C >.s 5.7.T Z *.> w 5.7.5.",
"t.] ( M w.w.>.w.] ] a e.t.( e.A 7.C w.R e.T s e.e.5.*.5.7.1 Z A C | ; , T 7.T 7.R b , T T 9 *.7.C T s T < T b T | *.7.5.*.< R 9 ",
"b ] *.o.w.8 t.w.a t.e.>.9.t.b o.R s e.*.b e.C s o.o.5.*.( , V V Z C 1 | >.7.*.- 8 *.o., *.*.C e.e.7.*.< T e.7.w.w.< s *.T w.o.; ",
"w.>.T 5.w.o.*.w.8 A t.o.( b A 5.*.s s ( w.>.5.w.7.o.5.5.*.V C V 1 Z 1 6.*.7.7.w.o.8 >.w.C *.T s T e.R o.R *.*.T T s >.5.s R 9 w.",
">.A 8 T w.] w.] >.>.b T y M o.o.s A >.C o.T C w.5.5.w.w.V , < A V V , T s T s e.5.b > C e.7.s 7.7.T C >.e.R R T 7.T C w 7.o.w w ",
"o.o.w.t.A >.8 T e.b w.M y o.t.9.( ( 7.>.w C R 7.5.5.*.>.*.C 1 V V 9 ; *.*.7.s C e.] ] 7.7.b s 7.*.T , C w.T C w.o.5.*.T T o.5.R ",
"] 5.o.A t.>.y ( w.] a A 9.5.T b T 9 >.V *.7.T C b T *.] *., 1 s < 9 ; C 5.5.C *.t.5.> C T C w.e.( e.> A 7.T >.< R x R 5.< s T 5.",
"A y o.*.] A a >.< b w.9.5.5.e.] >.( o.T T T 7.T T 5.>.A 6., 1 1 s < ; w.7.7.T s a e.T T T 7.C T 7.Z e.] < R e.s T o.x o.o.R C A ",
"*.7.C *.C T *.*.] 5.>.o.- T o.T s 7.R 5.C o.R R 7.w.T ] 7.; a < 1 5 ; A 7.5.T s A w.C R s < *.7.T C *.*.s T *.w R e.s *.*.s 9 C ",
"R T *.T 7.*.s T 5.A >.5.- w.5.*.x A C *.>.x s e.>.] ] *.>., a 5 s < ; 1 x C 7.>.A R s e.*.> T s 7.5.*.*.s *.s >.*.> *.*.s < >.9 ",
"o.C w.R T *.C s ] t.5.o.t.] T T C w *.T o.> >.R w., t.>.P Z , A V 9 ; >.T 5.*.T 7.>.s T >.T o.b *.; e.C *.( *.s s e.T s 9 R s = ",
"*.C R R < Z T C w.b o.8 8 C 6.T ( T *.*.T R ( w.*.T T 7.| ; A C s 9 ; >.*.C C *.Z T T s , *.o.o.R R A 7.T s s R 9 x C s *.T s >.",
"s >.9 T C T s >.s s *.> > T ] < 5.T 5.T w.C >.*.T *.T w.>.; < V 5 1 ; >.5.s C T C 5.7.>.( e., s C w.T *.T w.> s w s R >.s T R T ",
">.w 5.R *.5.7.s e.a *.] 7.A < w.R T w.R 9 x o.C A | T 6.>., , a V > ; | *.7.e.o.9 *.T ( s C C 7.s 8 T e.9 x o.o.o.x R s >.s T ; ",
"w *.w.o.s e.A e.b ] s *.T s C T >.M R ; R 5.C o.*.*.C C L , 4 L V > > >.>.( T > *.T *.7.T T t.T > *.C 9 w.5.> o.R s w.R s > C o.",
"o.*.R *.C 7.s *.T C *.7.*.s 7.o.9 w.s >.>.s 5.C >.| T T ( a , 6 5 , ;  .A A s V s x A > e.< < b T 5.< T o.R >.R s = > R 5.< C w ",
"x T >.x R > s R M v M 7.> > M 7.R x $.w.x o.x R A ] ] < L , : g 9 ; ; s C *.T 7.7.5.T > ] A ; M ( V A A o.> o.5.R x R o.s V ; k ",
"w.C o.C s R o.x > 7.>.7.x w.M s w.( T 7.7.o.M w >.w.;.P 2.: : ; ; > ; A T 6.>.6.8 , a e.2.L a 2.A | Z V w T o.o.> 9 A 5.A A 2 ( ",
"> A R C o.o.9 < $.>.s >.R o.R o.5.M x w.9 y s s 8 o.< V ( , : 4 s ; ; | A 7.*.T o.o.A ] y ( *.( 7.7.| ( R 9 y o.o.x x 9 > L > k ",
"> R A A x x x s w > $.R 5.> R x 9 M s R o.s 9 y b V P P L : - , > ; ; >.| T s T b 5.8 A , a y y >.C ( s o.7.x T ( R R w s >.s > ",
"x x 5.7.T o.T s 7.s M >.b 9 w >.9 o.x R o.x x w ] ] ] A 4.: ; 2 < ; $ L 6.< 1 C T T > > M y ( M 1 Z C C C R y s v s 2 > s ; s k ",
"C 9 x > R R w ( 9 R $.s b s ( >.x s R R > w R R ] >.;.;.5 # ; 2 ; ; & 2 Z ] ] 1 &.o.T t T , ( y ; V o.s > > y $.> s R s 9 s > 9 ",
"R w R x R R A >.$.R > s >.R C s R 9 o.> x R w R >.] a V 4.* ; * ; % ; ( 6.Z < T 5.&.t O.t M t , >.A < | o.; s $.R > 9 ( R A ; k ",
"R o.T *.*.w C C 9 ( s $.R > R s 5.( > x x > s x >.T V A d : * : & ; % 9 , T o.> M o.T T M *.W W V ( > >.R C R M o.o.9 > ( s A k ",
"w x R R s ; R 9 R s $.> C ( ( R R x x x ( $.v v w ( L ( D * ; * ; $ & _ _ | V >.L ( < c W , @.) p C ( C R $.( C ( R w ( v k ( L ",
"C 9 x T > < M s >.R $.> o.o.C C w x 5.R > R w 9 C  .p L _ * * * & & & ,.,.L | >.4 y @.W .., ~ ~ p p G p $.> 9 C $.w > v k ( 2 w ",
"_ < A A p <  .C p > o.o.p < Q p _ 5 9 s ; v >.2 < i < k D * & ; ; & * g 6 L d d ;.;.i 5 W e N ~ C p p p G p ( v 9  . .; 2 ( 2 v ",
"< A < > v < < < i L < > o.p p $.9 s V A 2 $.< k p > k i D : & ; ; * # g 6 , L y P i V _ N n < , > p C G ( G o.v > 2 2 ( v w > v ",
"( V > L >.( L k k p 5 C >.o.C < s | w L >.L > < >.k k 2 G < & * : * $ D 6 3 g { G | 2 g | i _ k G Q < , ( 5 v o., o.k G L V V | ",
"< 2 2 % 9 k < ; ; > < < > ; < ; ; ; > ; ; > < i 2 2 ; ; ; ; * & * * O ; - % : - ; ; ; : ; ; , : , , & ; 5 , = ; ; ; > ; > ; ; % ",
"; # % ; $ % $ % & & & % & % & & $ % $ $ ; % % @ % % $ % & + ; & * - # $ $ % * $ $ * # & & * % $ % % & & # % % % # % % % # # $ % ",
"% ; ; % ; ; ; ; ; ; ; & ; ; ; ; ; ; ; ; ; % ; ; ; ; ; ; ; # * & & - $ * ; % - ; ; * ; ; * * & ; ; & ; ; ; = = ; = = & % ; % ; & ",
"; & ; ; ; ; ; ; - - = : - - - - - - - - - * - & * * * * * $ * * & $ * * ; * & - - - - - - * - - * * * ; - - % - * * * - % * - % ",
"% ; & & ; & $ ; & - - & * * - & & ; & - & * * : & : * * & $ * * * & X & & * & * * % & * & & * * - * * - % * % * * % * $ $ % $ * ",
"# & % $ $ & % # & % % = % @ $ $ X + # + # O . X X X . X X X * & & $ X $ X X X $ @ $ # @ $ $ $ $   o % $ $ @ * %   $ @ $ % $ @ o ",
"w R A 2 s ( T , ] - r ( @.~ , E I ; 7 : - r r K g 3 4 : g & $ * * $ $ 3 D 3 g 3 I g , , 3 4 3 [ - e n <.r n 7 7 : 7 > ) 0 0 m N ",
"w v w ; , 1 , 1 < V a ] j , 7 : D 7 { 7 j { K * D g 3 3 D - $ & % $ % I D : g : : < n r 6 { %.r e n : K E e : , h N - : , , % u ",
"C v L w 5 Z V s - ] ; a 7 - K : g g 7 j K g 7 - - [ & : , - # & % @ $ g [ g g 4 M ( < r { t , W , e , , } E n n 0 h , u m m u - ",
"C > o.k , A V 5 ;.A < < h K N , 0 K K - , : D 3 : g : D 7 - $ & * $ % I D 6 I g M , y ( r y r < : E 7 7 e n n e h K h N 0 - h , ",
"2 ; ( w ; , ; ] A P A < e m K e e - j : K , g 6 4 : 3 g K @ @ & % $ $ g 6 g D I c M M y M ( M c 7 r 7 E j e n E - 0 h m : , m m ",
"k v d , , d , < e K K e * h N h e K 7 7 : K m , , , , m e % O & & $ $ d I , : d ( , ( , ~ +.e W h ) , r 0 , r n e , E h , , h , ",
"( ; 4 ] M 4 , , h , 0 e N K h - K e h , : e e m m K N : K - @ $ & @ & 4 N N , , ] M T 8 e r , , n , , 0 , r u , N h : - 0 0 0 - ",
"s ; 1 a n , < t h N K K 0 , - , e j h ) h , e h m e g m m : @ & & @ # , 6 N N , M d M A n , e r 0 : r E r r : , , : , : 0 , , n ",
"5 T V ; r , r r , h : h , K , e 0 e 7 , , - e : , , e 7 * - + * % $ $ L n < r , N { r : { e E : - - r , 0 n : 0 m : , - 0 0 , : ",
", n r , e < ~ < K e , - ) K N N h , m 0 0 , E 0 , r m e 3 : + & & @ & I 4 : 6 L , < : * E : , E , r * 0 0 * r r , 0 e : , : , , ",
", , , , < n +., - N e K h ) - : ) m m N : , h 0 g : - 7 g $ $ & $ + $ I D 6 d 6 N , , e e e E , 0 0 0 h : , 0 0 0 : - 0 : , 7 0 ",
"7 n 7 , e e E , : h e 0 h K , , : , h h h : u , 7 : * 6 3 * & $ & $ + 6 6 3 6 : : , , n ~ 7 < E m : 0 N r c , e E & : 0 : : : : ",
"r r , n e , e e , N K h : , : N e e , , , 0 , u 7 6 g 4 3 * $ & $ @ $ D 4 : : 3 < n , < n 7 E , r r r 0 0 : : u r 0 u , u : 0 , ",
"7 , 7 , e 7 - K h e , e e , ) , : 7 r r r r c 0 , 0 7 % : * $ $ & # & 7 r 7 r r c : c : , n e : N - : N r , e : - 0 u e : : , * ",
": n r 7 K e K , e h , h h h e , r m 7 7 7 7 , : , r 7 , g & @ $ $ + * 7 , , n , u : , , , 0 0 r r e h e e 0 r r , , , 0 , e - * ",
": - r , K e e e e h h e h , : - r , u , 7 - - , : 7 : - g $ O # $ + $ 6 : : r r : 0 - : 0 : , e e , m 0 : r , r 0 - : : : , : , ",
", r 0 r , j , e e h e m h e 0 , r , , 0 : r 7 r , 7 : * g - O $ $ $ @ r , , e r , u 0 r n , 0 7 7 N , , 0 r : e r , 0 : : r , : ",
", 0 m - 0 0 0 0 e 0 : , h h N , e - : , r , : 7 : - - - r : O $ $ + $ : 7 7 7 - u 0 : u 0 - e 0 0 , r 0 : , r e * - 6 * 7 : 7 : ",
"0 , , , e e u m , 0 , - m : N e u e 0 e , , - r - : - - : & + $ & O $ 7 , , 7 - : - : u 0 , , % , : r , : 0 - 0 : * : - : % : $ ",
", 0 : : , : c : , r , e N r h e : u e : r r : % : c 7 : 7 * + $ & + & 6 - e : 0 , 0 , e : 0 u - 0 , : r : 0 : : 7 : : 3 * - - : ",
", , 0 7 : : u , r , , e h h , $ , u : : 0 : : 7 : : , : 6 - O & $ + $ : - 0 : : * : : r - - , 7 , , * 7 0 , : 7 - 6 4 @ : : : : ",
": & : : g g : g : : 6 , 6 - : 3 7 r : , * 7 : : : 3 * 3 3 $ X $ $ O $ 3 3 : 3 * : , 7 e 7 , , e r r 7 7 3 3 : : , 4 : : : 3 - : ",
": 3 : 3 3 : g : r , , , g & : 3 7 , : , 7 , - : * : * : * $ $ $ $ X # : : 3 : : 7 : : : - : e : : : 7 : - 4 - $ 6 , : : * * : : ",
"3 : g & 3 : : : , 7 , 6 3 : 3 3 7 : 3 3 - - : : 3 $ * : : : + $ $ X # 6 : : 3 : 7 - 7 : , u : : , : : : * 3 : 3 : & : : 4 & & * ",
"3 : : : : g : : , , : 6 3 : : : : : - : 7 : : : 3 * : : : $ + $ # X X - : & : $ - : : : : * , , : 7 , 3 : - 3 : $ * : 3 * : : : ",
"* 3 : : : : : : : 3 : * 3 3 3 * : : & * 3 3 * * * : * $ : $ + $ $ + $ * 4 : : * 4 - : , - * 7 : : : 7 7 : & : * 3 : * : : $ * - ",
"* * 3 : 3 * : 3 : * 4 4 : 3 - 4 * : : - * : 3 : * # * 3 $ $ + $ # + $ : : : * 3 : $ : * : 7 : * : : : - * 3 : * * * : + : & & * ",
": * $ * 3 * * : : * * : : 3 & * * : : : 3 : * 3 : : $ 3 : * + + $ + $ : @ & 4 * * : - : - - : : , $ * - : * * * * : : : & # * * ",
"* : : : 3 * : : 3 : * : 4 $ : : : * : 3 * & * * * + * * : $ + $ $ X $ * * : * : : * * 7 * - , : - : - - $ * : * : : - * : : * * "
};
