/* XPM */
static char *_200b42c5f6340abd999037c88c190ccfet3lQ4Wmnfkf0ms[] = {
/* columns rows colors chars-per-pixel */
"64 64 113 2 ",
"   c gray38",
".  c #676767",
"X  c #79797B",
"o  c #7B7B7D",
"O  c #7B7B7E",
"+  c #7E7E80",
"@  c #808082",
"#  c #828283",
"$  c #838384",
"%  c #848484",
"&  c #848485",
"*  c #868688",
"=  c #878788",
"-  c #878789",
";  c #888889",
":  c #89898A",
">  c gray54",
",  c #8A8A8B",
"<  c #8B8B8D",
"1  c #8B8B8E",
"2  c #8C8C8D",
"3  c #8C8C8E",
"4  c #8E8E8F",
"5  c gray56",
"6  c #8F8F90",
"7  c #909091",
"8  c #919192",
"9  c #919193",
"0  c #929294",
"q  c #939394",
"w  c #939395",
"e  c #949495",
"r  c #959595",
"t  c #959596",
"y  c #959597",
"u  c gray59",
"i  c #969697",
"p  c #979798",
"a  c #979799",
"s  c #989899",
"d  c #98989A",
"f  c #99999A",
"g  c #99999B",
"h  c #9A9A9B",
"j  c #9B9B9B",
"k  c #9B9B9C",
"l  c #9B9B9D",
"z  c #9C9C9D",
"x  c #9D9D9E",
"c  c #9E9E9F",
"v  c #9E9EA0",
"b  c #9F9FA0",
"n  c #A0A0A0",
"m  c #A0A0A1",
"M  c gray63",
"N  c #A1A1A2",
"B  c #A2A2A3",
"V  c #A2A2A4",
"C  c #A3A3A4",
"Z  c #A4A4A5",
"A  c #A5A5A5",
"S  c #A4A4A6",
"D  c #A5A5A6",
"F  c gray65",
"G  c #A6A6A7",
"H  c #A7A7A7",
"J  c #A7A7A8",
"K  c #A8A8A9",
"L  c #A9A9AA",
"P  c #AAAAAA",
"I  c #AAAAAB",
"U  c gray67",
"Y  c #ABABAC",
"T  c #ACACAC",
"R  c #ACACAD",
"E  c #ADADAE",
"W  c #AEAEAE",
"Q  c #AEAEAF",
"!  c #AFAFB0",
"~  c gray69",
"^  c #B0B0B1",
"/  c #B1B1B1",
"(  c #B1B1B2",
")  c #B2B2B2",
"_  c gray70",
"`  c #B3B3B4",
"'  c #B4B4B4",
"]  c gray71",
"[  c #B5B5B6",
"{  c #B6B6B6",
"}  c #B7B7B7",
"|  c gray72",
" . c #B9B9B9",
".. c gray73",
"X. c #BBBBBB",
"o. c #BCBCBC",
"O. c gray74",
"+. c #BFBFBD",
"@. c #C2C3BD",
"#. c #C5C6C1",
"$. c #CECFCA",
"%. c #CFD0CB",
"&. c #D2D3CE",
"*. c #D5D6D1",
"=. c #D7D8D3",
"-. c #D9DBD5",
";. c #D7D9D8",
":. c #DDDEDA",
">. c #DFE0DC",
",. c #E1E2DE",
"<. c #DFE1E1",
"1. c #E4E5E3",
"2. c #EAECE7",
/* pixels */
"b a } O.O.O.O.O.O.I K T G O.O.M O.} S R = : j _ o.O.O.O.O.&.=.-.-.&.>.S O.O.o.} ! T # & k O.O.o._ | o._ } H ~ o._ o.} O.U c j m ",
"j 6 O._ O.O.O.O.O.o._ G } O.O.O.O.} O.O.3 & a H M O.} O.O.&.=.-.-.&.>.o.o.O.} H o.c : X G O.O.! o.| O.| _ U U } O.O.O.O. .8 m m ",
": a _ O.O.O.O.O.O.} } O.O.O.T T O.O.O. .S t : > T } U O.U @.=.>.>.&.:._ _ } ! J J S b < M o.o.O.} O.O._ p t m O.m O.O.I a 3 G ! ",
"t t c I O.O.O.O.O.O.} O.I O.M I I O.O.j H t 3 > U } O.~ o.@.=.>.>.&.:.! ' O.I I 9 b ! J m S 7 ' j O.t a e t t O.m a O.I R p ! _ ",
"G 3 t a O. . .O.O.O.O.O.O.I b _ R o.Y ! } T : 7 R O.O.} O.@.-.-.*.*.*.' U O. ._ a J M | | | [ ' ' o.j a j a O.G S ~ ~ ~ U T } O.",
"c M l + O.O.O.O.O.} O.M O.O.I o.O.o.S G ' ~ N N O.O.O.O.O.@.-.-.*.*.*.o.O.R j j l ! J  .| [ [ | T l e j t a ! O.G G } ~ O.O.O.o.",
"t 8 + + O.O.O.O. .O. .O.O. .c I O.o.T G J G J O.O.O.O.} U @.-.-.*.*.*.k O.O.} j v | | O.o.| | O.k _ e e _ ! O.o.o.~ O._ O.O.O.O.",
"t < t b O  .M O.O.Y }  .O.I _ I S N 0 M J m M J e U O.} T @.-.=.:.-.1.N O.O.o.k O.! O.| o.o.O.O.O.O.o._ j j _ o.~ _ ~ ~ _ o.o.} ",
"b J M b b O.b | O.O.| ! O.o.Y N R 0 0 8 M N J R U J o.R | @.=.=.:.-.,.o.o.U O.T c O.O.O.O.O.O.O.O.O._ t _ O.O.O.H _ ! _ o.} ' j ",
"6 O.Y |  .b O.!  .T Y o.( Y O.J T  .I _ S J J T J U J R Y &.-.:.>.&.:.S H O.T +.O.O.O.O.O.O.O. .j O.o.! o.O.O.O.o.G _ O.O.O.! } ",
"O.O.O.Y | O.Y Y Y T T ! Y O.Y Y U T R t t M J M a J } o.a &.-.:.>.&.:.R S U O.O.O. .O.| O.O.o. .a  .O.| o.O.O.! J ~ ~ O.O.O.O.O.",
"O.O.o.J O.Y O.Y T T  .Y O.o.Y J R T U U J 8 R a M a a I a $.-.:.>.&.>.S U } T U O.O.O. .O.O.O.j a j O.O.O.O.O.O.~ _ T O.O.O.O.O.",
"O.o.O.| J O.Y ! Y |  .Y | Y Y Y U R j ~ G H 8 R O.a a a a $.-.:.>.&.>.S U O.R O.O.O.O.O.O.O.o.o.j a O.S ' o.J ! O.m b O.O.O.o.o.",
"O.} | O.N J Y O.O. .J | O.N Y J R j j j ! O.O.O.a a O.a a &.*.:.-.-.>.T ! O.U O.O.O.O.O.O.O.} O.o.o.O._ O.o.o.O.~ m _ b 7 O.O.O.",
"G J a N 6 N Y O.O.O. .O.N O.o.l  .j j j 8 t O.a a a O.a O.&.*.:.-.-.>.~ M m ' O.O.O.O.O.R O.O.O.o.o.' o._ _ O.~ ! k m b 7 ! M H ",
"T Y l 0 } G O.O.O.Y O.Y O.! l o. .8  .j ! ! a O.O.a O.O.a %.=.:.>.%.>.G ' ' o. . .O.' G O.O.O.O.O.o.o.' _ o._ _ ! _ ! 7 m 7 m j ",
"M G b t } T O.O.O.O.O.O.I O.O.O.O.G G G ~ T o.O.O.O.O.O.O.%.=.:.>.%.,.( G t O.O.G G G M O.O.O.O.o.e o.o.o.| ! ! J _ 7 ! } j e b ",
"M _ o.} ( O.O.O. .O.I I O.j M c I O.T T T o.O.O.a O.O.O.O.%.=.:.>.%.>.! t ! T O.o.G G M M 6 O.6 } e o.o.| I ! l J H j U ! } l a ",
"M l O.o.o.o.! o.O.O.O.I O. .O.M j O.I Z e ~ T O.O.O.a O.O.$.-.:.>.=.,.t T T } } M } } _ M O.( | e e o.o.' J ! J S B J R S N ! m ",
"Y j l o.O.Y O.O.O.O._ _ O.O.O.O. .c } G e t } } t O.O.O.T $.-.:.>.=.,.! Y _ }  .} 8 ( 6 0 ( } 6 7 0 | o.' ( l 6 a 7 J J g ! o.R ",
" .T 8 K J Y T b O._ O.O.o. .O.O.j 5 } G } n } t U _ o.R T &.=.:.-.=.>.!  .T  .} O.8 8 _ O.O.} } ' | [ Y b v I g 6 6 S J o.O.O.O.",
"O.~ t 8 t O.b b c ' O.O.O.M M M n n n n ~ n M M O.U O.T O.&.=.:.-.=.>.T  . . .} O.O.O.o.O.O.( } [ ' [ o.Y k 3 g 6 g 7 O.o.O.O.O.",
"_ _ G } G 0 o.b t 8 8 o.O.! M M } o.~ t t M ' _ ~ I _ o._ &.*.-.-.-.>. .T  .o.o.} O.O.O.O.O.O.O.[ S N e e ( ' ' g m  .o.O.O.O.O.",
"T t b G G b 0 0 8 t O.c  ._ o._ M 5 5 M 5 5 M o._ } _ _ _ &.-.-.-.-.>.! o.O. .O.O.O.O.O.O.O.O.} o.O.y ' e ' ' ( O.m o.N O.O.O.O.",
" .} G G G } e e 8 e _ j t j T t ~ ~ 5 O.5 T T ' o._ _ ~ O.&.-.:.=.*.1.a  .o. .O.O.| | O.j o.O.G O.t 0 } O.( ( } m O.' o.O.O.O.O.",
"O.O.~ I } G ~ e e j e n J j _ O.O.O.T T T T O.O._ o.' o.U &.-.:.=.*.1.O.O. .J o.| | j o.O.a G O.O.O.( ( 6 6 6 (  .' O.O.O.O.O.O.",
"O.O.o.O.~ ~ e G } j j j j O.5 O.~ ~ O.~ T T o.o.O.O.o._ o.&.-.:.>.&.,.N O.M | O.O.O.! o.O.o.J Y R ( 6 6 6 6 ( 6 Y J O.o.7 O.' o.",
"O.O.O.~ ~ ~ ~ } } T n j j O.5 O.~ ~ T T T T O.o.O.T o.o.p &.-.:.>.&.,.J J G G | | ! _ j j G G Y a } 6 6 ( 6 6 L o.' o.o.R R ! } ",
"} O.O.O.~ O.} ~ j ' _ I 3 5 o.j o.j o.o.o.K G K K o.o.o.O.&.-.:.:.&.,.J |  .J | _  ._ G G I J ( I _ O.O.& ( O.o.'  . .& R T R _ ",
">.>.:.:.*.*.*.,.,.:.:.>.>.,.>.>.,.,.,.,.>.,.>.>.1.1.,.,.,.&.1.*.1.=.=.>.:.>.2.2.1.1.;.;.:.:.,.>.,.:.:.1.1.>.:.1.1.>.>.>.>.>.*.*.",
"&.&.&.&.*.*.*.-.-.&.&.&.&.-.-.%.%.%.=.=.=.=.-.-.*.&.&.&.*.,.1.,.1.,.=.=.=.=.$.$.*.*.*.*.*.*.%.%.%.*.*.*.*.*.*.%.$.$.%.%.&.&.*.*.",
"-.-.>.>.*.*.*.:.:.,.>.>.>.-.-.>.>.>.>.>.-.-.-.-.-.-.,.:.,.-.1.1.1.:.=.=.>.>.>.>.;.;.;.-.:.,.;.;.;.;.;.*.=.*.*.>.:.*.*.*.>.>.=.=.",
"-.-.>.>.-.-.-.=.=.:.:.>.:.:.:.:.:.:.:.:.:.:.-.-.:.:.:.:.>.>.:.:.,.:.=.:.,.:.:.:.:.:.*.*.:.:.-.-.-.-.-.-.-.:.:.*.*.-.-.-.:.:.*.*.",
"=.=.=.=.-.-.-.=.=.-.-.=.=.*.*.=.=.=.-.-.=.=.=.=.-.-.-.-.-.&.=.:.1.*.-.-.:.:.*.*.-.=.*.*.-.-.-.-.-.*.*.-.-.&.&.&.&.*.*.*.&.&.-.-.",
"&.&.@.@.@.@.@.@.@.&.&.$.%.*.*.$.%.%.%.%.*.%.*.%.&.&.&.&.&.+.:.:.:.-.*.*.&.&.*.&.$.$.-.-.*.*.O.O.O.&.&.$.$.&.*.*.*.&.&.&.$.$.#.#.",
"m G O.I J G _ ' ' 9 o.9 I 9 ' ( l Y l O.N l O.N N M M ' b &.:.,.>.=.:.O._ ! T O.| o._ J ( J | O. .* O.O.O.Y O.O.O.O.O.l j j O.O.",
"| R J G l G M e e 9 9 e U e ' ' o.Y ( c N N O.R N O.N ' } &.:.:.,.*.:._ o.! T | ' J J ! Y J _ m O. .O.* O.} O.O.O.T l O.j O.O.O.",
"} n G G J O.J J o.9 o.9 I R 8  .8 O.O.O.O.O.N O.( ' O.N ( &.:.:.:.-.:.} ( ( Y _ } _ J ! O.J J m I O.G O.O. .( O.O.T O.O.j O.O.O.",
"l m M C O.J | O.| m | |  .0  .0 O.O.O.O.o.o.O.' ( ' v l O.&.*.:.,.$.2.( ( ( _ _ T _ J J  .M  . .I I G O.O.( O.( O.O.T O.O.O.O._ ",
"j S J H J J O.o.o.m Y o.0  . . .0  . .O.o.o.| O.' ( ! l O.&.*.:.,.$.2.b } o.o._ Y _ _ ! _ I I I  .O.O.O._ O.} _ I G ! O.N o.o.T ",
"e 9 * * H | O.O.m 8 Y m 0 9 o.0 O. .}  .|  .| O.O.! ! ! l $.-.:.;.*.1.M M O.! ( ( O._ N M I O.O.T _ _ G _ o._ ( G _ T O.} N } : ",
"e 3 ; ; | | | O.m m m m m  . . .O. .O.} } } O.} ! T T l  .$.-.:.;.*.1.( ' N Y T ( I O.( ! O.' ' _ o.G K ! _ J _ G G T G j j b b ",
"O.O.O.O.J  .; m m m m m Y m  . .o.O.} } o.| } T ! ! } T o.-.*.*.;.*.;.' M N ! ! O.O._ ! O.! } H _ G I T J G J J G G O.O.O.J I O.",
"O.O.O.m n e c m c m Y Y Y m 0 0 0 O.} O.O.| O.! | ! T }  .-.*.*.;.*.;.O.O.O.O.J ! J J J ! ! T O.T T T G G G | | } G ' _ O._ O.O.",
"S o.O.O.m H R I m m m Y R m b I O.O.l O.O.O.O.| O.o.T _ _ *.-.:.:.*.:.O.O.O.J O.O.I J ! } ( ! O._ T T T T T | Y } _ _ _ _ O.O.O.",
"^ ^ J D S m ^ m m m c m m m I } j j O.O.O.O.O.| O. .O.O.o.*.-.:.,.*.,.O.O.O.O.I J J J I I } ! ! I T T T Y Y Y J } _ _ J o.O.O.I ",
"9 j ; J ; ; m _ b m m c I G G j j O.O.O.O.O.O.O.O.O.O. . .@.-.-.;.&.:.O.O.O.I O.I I ! J ! T T T ! Y T Y Y  .Y Y G o.} o.O. .} N ",
"e c ; ; ; ; ; m _ m m m U I O.j I O.O.O.O.O.O.O.O.O. .O.O.O.-.-.;.$.:.O.O.O.O.J J J J ' t O T T T O.T Y Y J  .Y Y | o.} J J T M ",
"| O. .; ; m O._ m m o.G m M M R j O.O.O.O.< O.} o.O.O.O.o.+.-.-.;.$.:.O.O.O.a J I J ~ e t o.o. .b O._ _ O.I T I I O.O. .O.} } ! ",
"_ o.T | ; O.; O.O.o.R m U m o.I O.U O.! O.< < ' U O.O.T _ &.*.-.;.*.,.I J I T a G I 8 t 0 0 ( O.o.O._ o._ O.O._ O.T O.O.O.O.O.| ",
"H R  .^ ^ O.O.O.O.O.o.R M o.M O.I 5 5 O.! ! O.' } O.O.} O.&.*.-.;.*.>.T T T M J t t 8 t 0 T T O.T T o.Y O.O.I !  .O.O.O.o. .O.} ",
"J | O.^ T S O.O.o.o.o.^ ^ G O.I H K O.O.3 O.O.} : } O.O.o.%.-.-.=.*.<.< T _ T T M M t t t T  .T O.O.Y O.O.O.O._  . .O. .O.O.o.} ",
"R X.O.C O.O.M o.o.o.~ ~ G ! 5 O.K } O.5 O.O.< o.O.o.O.O.O.%.-.-.=.*.<.< 3 T b T O.a O.O.O.O.t M O.O.O.O.O.O.! a  . . .O.Y  .j G ",
"S O.R O.O.O.O.O.C ~ ~ ~ m O.O.5 5 5 5 5 6 O.< < < O.O.O.l &.&.:.*.*.:.: T T O.T O.O.O.O.O. . .O. . .O.O.O.O.! j O.O.O.O.O.O.M 0 ",
"O.U o.O.| o.O.O.C M ! ~ O.O.O.5  .3 3 6 O.O.O. .O.O.O.O.O.&.&.:.*.*.,.*  . .T O.O. . .O.o.T O. . .O. .O.M O.O.O.O.O.O.O.O.I Y } ",
"_ _ O.X.o._ O.O.M C C ~  .5 5 U | T  .O.O.O.O.I O.o.o.O.O.*.&.*.>.%.<.I I * : O.M  .O. . .! T  .O.O.O.O.O.c T c O.t O.O.O.O.} } ",
"O. .o.| _ _ O.O.O.C O. . .| 5 | | O.6 O.O.N N J T O._ O.O.*.&.*.>.%.1.o.Y I * O.O.O. .!  ._ O. .O.O.O.O.O.O.O.Y Y t t ! O.O.O.O.",
"O.O.O.O.R _ O.O.O.M O.O.9 5 | ~  .T O.O.O.O.J T T O.o._ } &.*.-.*.%.:.o.Y O.o.} b _ M } ! o. .o.o.O.c M O.b M I I G o.t O.O.O.O.",
"| O.O.O.T | | o.O.O.O.O. .! _ _ S ( O.O.O.T O.! ! O._ # # &.*.-.*.%.>.O.O.: !  . . .T _  .! o. .O.O.O.M O.j j M O.j c I I _ ' O.",
"O.O.O.O.U O.| o.C O.J J | _ X._ ( G N O.! O.O.O.O.O. .O.' &.*.-.*.%.>.: o. .o.}  . . .o._ o.3  .O.T M T O.O.I j M 0 G c I O.o.' ",
"O.O.O.O.O.O.| _ o.^ J J | O.O.| O._ M ' T O.O.O.O.} _ _ O.%.&.:.>.&.:.} _ ^ O.M O. . .a t  .c  .M M T O.o._  .T  .c I l n 6 O.O.",
"O.O.O.O.O.O. .O.I J J | M o.O.M I M ' T O.O.O.o.O.O.} O. .%.&.:.>.&.>._  .O.O.O. .} O.}  .j 3 c T  .T c _ O.}  ._ T j c j 6 T O.",
"O.O.O.O.O.O.O.O.G S o._ R ' & & c M J C O.} G G  .} o.} l #.-.*.=.*.*.O.O.O.O.} c _ O.o.M : .   M T T O.O. .G J l l l c 0 6 T T ",
"| O.O.O.O.O.O.o.; 5 G G ^ _ 8 o p M G _ | n M t t _ | O.: #.-.*.=.*.*.O.O.O.O. . .M T } 3 : t 6 }  . .O. .} G M l j | | G M b G "
};
