/* XPM */
static char *Zmxvb3JfeWVsbG93JTI4MSUyOQ__[] = {
/* columns rows colors chars-per-pixel */
"64 64 147 2 ",
"   c #F3C93F",
".  c #EFC744",
"X  c #EFCB46",
"o  c #EFCD49",
"O  c #F3CC45",
"+  c #F9CF46",
"@  c #F4CE4A",
"#  c #EFD14D",
"$  c #F6D047",
"%  c #F6D24D",
"&  c #F9D34E",
"*  c #F5CF50",
"=  c #F6D452",
"-  c #FDD752",
";  c #FCD753",
":  c #FCD752",
">  c #FCD651",
",  c #F8D555",
"<  c #F9D654",
"1  c #F8D754",
"2  c #FBD654",
"3  c #FAD755",
"4  c #F8D557",
"5  c #F9D656",
"6  c #F8D756",
"7  c #FAD757",
"8  c #FCD755",
"9  c #F9D652",
"0  c #F6D951",
"q  c #F6D852",
"w  c #F7D953",
"e  c #F7DA52",
"r  c #F6DA53",
"t  c #F6D854",
"y  c #F7D955",
"u  c #F6D856",
"i  c #F7D957",
"p  c #F7DB56",
"a  c #F7D956",
"s  c #FAD850",
"d  c #F9D853",
"f  c #FAD852",
"g  c #FAD853",
"h  c #FBD953",
"j  c #F8DB53",
"k  c #FDD853",
"l  c #F9D855",
"z  c #FAD954",
"x  c #FBD954",
"c  c #F8DA54",
"v  c #F9DB55",
"b  c #FBDA55",
"n  c #F9D857",
"m  c #FBD856",
"M  c #FAD956",
"N  c #F8DA56",
"B  c #F9DB57",
"V  c #FBDA57",
"C  c #FDD854",
"Z  c #FED954",
"A  c #FED955",
"S  c #FCDA54",
"D  c #FCDA55",
"F  c #FFDA55",
"G  c #FDD856",
"H  c #FCD957",
"J  c #FED957",
"K  c #FCDB56",
"L  c #FDDB56",
"P  c #FFDA56",
"I  c #F8DC55",
"U  c #F9DD56",
"Y  c #F8DC57",
"T  c #FADC56",
"R  c #FDDC57",
"E  c #FEDC57",
"W  c #FBD955",
"Q  c #F6D458",
"!  c #F6D758",
"~  c #F6D758",
"^  c #F8D658",
"/  c #F9D658",
"(  c #F9D759",
")  c #FAD759",
"_  c #F8D65A",
"`  c #F9D75B",
"'  c #FDD75A",
"]  c #FBD75C",
"[  c #F9D659",
"{  c #F7D859",
"}  c #F7DA58",
"|  c #F6DB5A",
" . c #F7DC59",
".. c #F7D859",
"X. c #FBD858",
"o. c #FAD958",
"O. c #F8DA58",
"+. c #F8DB59",
"@. c #F9DB59",
"#. c #FBDA59",
"$. c #F8D95A",
"%. c #FAD85A",
"&. c #FBD85A",
"*. c #FBD95B",
"=. c #F9DA5B",
"-. c #FCD959",
";. c #FDDA58",
":. c #FCDB58",
">. c #FEDB59",
",. c #FDDA5A",
"<. c #FCDB5A",
"1. c #F9DD58",
"2. c #FADC58",
"3. c #FBDD59",
"4. c #FADE59",
"5. c #F9DC5A",
"6. c #F8DD5A",
"7. c #FADC5A",
"8. c #FADD5B",
"9. c #FBDD5B",
"0. c #F9DE5B",
"q. c #FBDF5A",
"w. c #FDDC59",
"e. c #FEDD58",
"r. c #FFDD58",
"t. c #FCDE58",
"y. c #FDDC5B",
"u. c #FFDC5A",
"i. c #FEDD5A",
"p. c #FFDD5B",
"a. c #FCDE5A",
"s. c #FAD85C",
"d. c #FCD85D",
"f. c #FCDA5C",
"g. c #FDDB5D",
"h. c #F8DD5C",
"j. c #F9DE5D",
"k. c #FEDD5C",
"l. c #FCDE5C",
"z. c #FFDE5C",
"x. c #FFDE5D",
"c. c #FEDC5E",
"v. c #FFDD5F",
"b. c #FFDF5E",
"n. c #FBDA5A",
"m. c #FFE05E",
"M. c #FDDE60",
/* pixels */
"| h.8.| N 8.< % < @.) < ) ) ) ] = ~ ~ 4 r h.y.r U | ) < @.y.@.< -.-.2 = % 1 1 > & 0 = = = = = N < N 4 r 8.@.) s.@.0 r # r 0 N 0 ",
"h.h.8.@.U 8.K N < K -.) g.s.~ s.~ @.@.4 | 8.y.E 0 0 4 4 4 4 ) < 1 @.2 , 1 % & % 0 0 & 0 = = = < N N r 4 @.N | @.| Q r % r 8.h 0 ",
"8.8.8.8.8.U N U < < ) < s.) ] _ ~ @.@.| 0 N -.K & 1 = = , , 2 2 @ = , = = & & & % % % % = = = 4 N < ~ @.4 N -.@.@.4 = 4 0 U = = ",
" . .@.U N = < 8.= = < , ) ) Q ~ N @.@.r r @.K N h 1 N r < @.-.) = = = = & 0 h 0 0 % % % % @ * = K 4 < @.4 @.-.< < 4 = 0 & m.% & ",
"m.p p p r % % r * = = * 4 4 4 ~ < N < < N N 0 & = & & 0 N -.-.) N 4 & & = = & & & & & & & @ = = 1 @ = < , , ) , = , = = & E & & ",
"m.p p r 0 0 % & = = = = 4 r < @.< 1 < 1 h h = & & % % & 2 N < = < 0 & = 0 h 0 & Z 1 0 = 1 = = = < = , < ) < ) < , = , 1 0 N = = ",
"p m.r 0 0 1 1 = = > = = < < ) @.1 1 = 0 = & & 0 0 & & & 1 & = % % % & h & & & = > > & & = & < 2 < < = * < K < 2 @ * -.1 1 N 0 h ",
"r r r 0 = N h & * = = = @.K N -.1 1 h 0 & & & s 1 & & 1 & @ * > @ = & 1 & % % & > & @ & = > > 2 < < o o , < , < * @ 2 % 1 & 1 = ",
"0 % = U = = < 2 = = = , < < -.N 1 = % 1 % % 1 & Z @ & > = 2 @ @ @ 2 @ @ Z % & & & % & & % 1 & > 2 2 > 1 O Z Z & = < K 2 K -.K 2 ",
"p 0 0 & = % = < = 2 = , < 1 N 1 h h 1 Z & % s & > & & K & = @ O = 2 @ % s & & & 1 & & % @ & = 2 2 = 2 = O 1 1 = & 1 1 1 2 2 2 2 ",
"8.j 1 1 = = , ) < ) , < N < K < K Z h E 0 % r & & > @ K = @ = @ * > % % & % $ s s $ % @ * > = > = & N % @ % 0 0 1 & & & < K ) 2 ",
"U N N K K < < 2 , ) , 2 -.N -.K < h 1 E h & j h & 1 @ 2 > & > & & = = % % % & $ $ % & & & > & & = % N % 0 % % 0 & 1 = 1 < 2 ) ) ",
"h h N N ) ) ) ) , Q , , < = @.1 < < 1 h 0 & h = & % & 0 @ 2 , K & & & & & @ $ % $ & Z & & & & 1 1 % N % = & & % % & & 1 = = 2 ) ",
"N h 1 1 < < ) ) Q Q , ) @.4 < = N N 1 h = % 0 = h @ % & O 2 @ ) > @ > = & 1 % $ % s & & & & = > & % % % h h % % % & h > = = 2 g.",
"K 2 1 = 2 ) ) ] ] ] , Q N = -.) h = 1 N = % 0 % = % # & @ , = = 2 @ > > & > & + $ % & % % & & > = = & % 0 h % & 0 0 1 K 2 , < ) ",
"1 = = = 2 ) ) 4 ) ) , , < 4 @.N 1 1 = 8.0 & 0 % & = o 0 = = 2 @ > @ > & @ > & & $ % & & & & & % & r % 0 % h X h 0 & 1 2 2 = = < ",
"= < * 4 ~ = ~ * , = @ o * * = = 2 = = < < k.% = < = = % = > & = @ @ > @ = @ @ % = @ @ % = % % % = & 0 % % 0 & = N 1 U & 0 E h E ",
", ) = ) 4 0 4 = < < = = = 4 < 2 > * % = 2 -.= 4 < % % % & 2 & & % o & @ * @ O + & @ @ % = % % % = & r % & N % 0 = & h & h y.1 K ",
"s.g., Q ) < N r < < < 1 = = , , > & 1 = < 4 = = 2 = % % 1 > & @ 1 @ = & > > & & & * % & & & % 0 h & N & & 0 & & % & N & K E & 1 ",
"g.g.~ ) N @.< < < < < < = = = , -.1 K = N = 0 % -.1 1 % > K & & % @ & @ > & & & & & & & & & % & 0 = h = = h 0 Z & 0 1 1 K U & & ",
"s.) ~ ~ 4 @.1 = = 4 < < , < < < , = < = N = < 4 y.1 1 = > K & & % X 1 % & & & & & & & & & & & & = 1 1 & & & Z E h Z & 1 Z h h h ",
"g.) ) ) @.-.= = @ = = < < ) ) ) = = = = < = 4 = N = 1 & > K & = & % Z % & & & Z & @ & & s $ h h % 1 h E p % 1 1 0 N & 0 N h K K ",
"M.) g.) y.k.< N = = 4 < ) @.g.@.2 -.= < 4 4 N = ) 4 > = & > & & $ X $ O & $ + & + & & & s s s s % 0 & N U & 0 & & N % = Z 1 K K ",
"g.) ) < @.k.= 1 N < N -.g.k.k.-.-.k.= K N g.k.@.g.< 2 = = = @ % 0 o % $ & % $ $ % + + & $ s s 0 & & # h K & N 1 = h % h K % 1 & ",
"g.) ) ) < < @.4 N ) @.< ~ M.g.k.2 1 = = -.k.-.-.g.N y.= 2 K > @ 0 $ $ $ s s & & @ + % $ $ s o s & & = & = h h h & h # 0 E = = h ",
"g.~ ) s.@.< ) 4 N < @.4 | ` @.] ) < = 1 < @.@.@.-.4 -.% 2 > & & % $ % $ s $ $ + @ & & & $ Z % h 0 1 0 & 0 0 & = & N % & E h h h ",
") ) @.g.k.@.@.< @.N s.| ` M.` ` -.N < @.) N @.y.@.= N = 2 > & = 0 % % % & % > & O & > & & s & h h h 1 h 1 & = & 1 Z & = h h h E ",
") Q ) g.y.-.-.) @.| s.@.h.M.M.M.N N ) < < @.8.h.@.= < = ) , & > 0 % s & Z & & & O & > & 1 Z & & h h h h 1 = 0 & & N & 0 = & N E ",
"~ , 4 N N @.-.@.@.4 ~ ~ s.M.~ M.-.< 4 4 r  .s.@.@.= ) 4 N 1 = > & % & & > @ & & * & & & Z Z & 1 N Z 1 & = & 0 & 1 h 1 1 h 0 E h ",
"s.Q ) @.@.) -.@. .4 ~ ~ ` M.~ | g.@.4 < | r ~ ~ | = ~ = 2 1 > = & % & @ & % & @ & & + & K & 0 & h 1 h = & 1 1 1 & h & N = & E = ",
"g.) -.k.-.-.-.@.8.r | | s.M.` M.g.y.-.@.~ ) | | ~ 0 ~ = < < 1 & & % * @ & * & @ @ > @ & > & h 1 1 0 = s & 0 0 & N h 0 h & h K % ",
"-.~ ) -.< -.@.< 8.0 ~ ] h.M.` M.s.-.k.k.@.@.k.k.4 0 @.= < 2 > & 0 % > @ > & & @ @ Z * @ & 1 U h & & = h s 1 = & Z 1 = 0 & & N % ",
"s.` | h.s.s.) | h.r N N r s.s.s.h.s.y.@.| r & E = % % & & h h % % = @ = = & > * @ & % = 0 = U 1 1 & % % = & 0 0 0 4 = = = = y.h ",
"M.s.@.s.h.| ~ ~ r 4 @.8.~ r | r s.@.8.@.N p h m.0 0 0 = & 1 1 1 % = & > & & & @ # & % = = & 0 & 1 h N 0 h = = & N N < K N 1 y.< ",
"M.h.s.k.M.s.@.) ~ @.h.h.4 t @.8.@.@.8.N U N 0 y.% 0 0 & = = > > 1 > 1 & > @ = @ o = & & 0 & 0 & & h N h h 1 & % = < = < = = N % ",
"@.| | s.@.@.~ | @.@.h.r Q t m.m.| s.@.N 8.N & N & 0 0 & & s & 1 & > & 1 = & = & % & % & & = h = % h Z 1 = 0 0 % K 2 -.-.2 K -.< ",
") ) ) ] _ ~ ) y.@.< @.< , ) k.-.@.@.s.@.E y.h N 0 & & % & > 1 & > > & > & @ > = @ 1 % 1 h & N = 0 N Z 1 & h h = = = < < = < < = ",
"s.g.g.s._ _ ) y.< ) @.) N y.k.@.@.@.8.@.y.m.h E h h 0 0 & Z Z & & > = = & & > > & 1 & 1 h & h & & 1 h 1 & = = h 2 1 -.K < -.-.2 ",
"4 < N ) = # = 0 Q , < ) < g.k.) | @.@.r K k.N U h 1 1 & Z Z Z & * & & & & @ = & & & % > 1 % 1 % h & = 0 = % & h 1 = -.2 = -.1 = ",
"N @.y.k.~ = = 4 = 0 Q = = @.y.< ~ r r Q N E = & & h h 0 & & & & + & & > & @ & @ @ % @ & 1 % & = h = h h 0 % % p -.= -.2 = 2 < = ",
"4 @.N < k.< * 4 @.4 N 4 4 8.) | -.h.N = 1 -.K 2 & < > > & % Z & @ & + & > & > % & & @ & 2 > > @ % h & > Z & N & = & * 2 2 ) < = ",
"< -.N @.g.@.4 r < 4 ) = < N < < @.@.N 4 1 K -.< 1 K > 1 1 & Z & @ & + & & & & % % & % > > = K & % = % 1 h % 1 % , = = , 2 2 < < ",
"N = = = 1 1 4 N N < -.) @.-.@.< < N < < < -.K < ) K > > & & & & + & + O $ & & & O @ @ % * & > > % % % 1 & % = * > , > > * > = 2 ",
"< = = = 1 1 N 8.) < @.< @.-.-.@.N K K < N K < 1 < 2 & & & & & & O % O % & $ Z & O & & 1 > = 2 K % = % & 1 & & & 2 2 , = = = = > ",
"K & 1 < 1 < -.-.= = 2 , < g.-.) N K N N 2 -.) 2 ) ) & & > & & + $ $ $ $ $ s s $ & % = & > > > 2 1 & > = & & & & 2 2 2 2 2 2 2 > ",
"h 1 1 h > < 2 K 1 1 ) , < k.2 -.2 K < < ) ) -.-.2 2 & = & & & + & &   $ $ $ % $ & @ & % & = & = > 1 > & * > @ = 2 2 2 2 2 ) 2 = ",
"% 1 & = < < = < ) < ) , ) -.-.g.< N N < < ) -.-.= 2 & & > & & @ + + + $ O O % O > @ > & = 2 & > > = > = & > * > 2 = 2 2 2 2 2 > ",
"% h = 1 -.< @ < 2 , < = , -.< 2 N < < N ) < -.-.> 2 = > > > > & + s $ $ $ O $ O @ @ & & @ & @ > > & 2 & = 2 & 2 * > 2 2 2 2 2 ) ",
"Q r Q p E = 1 < @.) ) ) 4 = h U N @.< r @.g.-.K 2 2 2 > > & & & $ O $ O + @ O + @ > % O & % & $ & K % % & O & 1 & > > = , ) ) 2 ",
"0 u 0 r Z 1 h N ) ) ) ) = = & 1 @.@.| 4 N -.-.K 2 2 > * + * * & $ O $ O O + . O & & % % & % & $ & K & % & @ & & % & = * * 4 ) ) ",
"t  .= 0 K 1 2 = ) -.g.< = 1 0 = 8.8.r 4 < @.2 < 2 2 > > & & > > $ $ & + @ & @ @ @ @ % & & % & & & Z & & & % % @ & = = * = 4 ) ) ",
"u m.Q = 1 1 < * 4 ] ) , 1 h U = -.@.| 4 < @.) < = > & * @ * & & & % & + @ & & > @ + % & & % 1 1 1 > & % & & @ & = & > > = 4 ) s.",
"# h.= = & = 1 = 4 ' ' , = < K 1 @.-.@.@.N K 2 , 2 2 & & * + * & & % @ O @ % @ & & O % > 1 1 1 & & & % % & & % & & & = , , < ~ , ",
"* @.= % & % = = 4 , ' * @ = 1 1 < < N < -.-.2 = -.2 & & * * & * $ % % O O & @ & > % = 1 > K & & Z & % % & & % Z & * > 2 ) < Q Q ",
"Q @.= 1 = $ % @ * & ' * * % & Z = < < < < K < = > = * + * + * @ @ X @ @ @ & @ & & * > & 1 2 % 1 > % & @ @ @ O > > * & > K -.< ) ",
"4 r = 1 Z % % % * * ' 2 = @ & Z 1 N = < < < = % K > & * & * + @ o X @ O @ @ O O O @ > @ 1 -.% 1 > % & % + @ . & & @ @ = < ) < < ",
"= = < N % % % & * * * * * > * * K 2 @ = = N > * 2 > & + * & * * % X O * O @ & + & @ & & > 2 > 1 & % & & + & O O > > & % = = ) -.",
", = 1 h & & & & * * 4 & 2 2 & @ < < , 4 = 2 = % & & * * * & & + = @ * = @ & & + & * @ * = 1 1 1 & % & & & @ O + @ @ @ @ = = , ) ",
") = = h Z > & $ & * * ' > = > & = % = = @ K @ & & & * + & & & * & @ @ = @ @ & + * O O @ @ & * @ = & & & + & & & @ O * + * > = 2 ",
"@.= & 1 Z > & % 2 & ' ' @ > 2 = % @ > & & -.& > > 2 & * + * * . O O @ @ O O O + + O O O * & & & & & & & + & + & @ O & & & K 1 -.",
"< = 1 = & 0 $ % 2 @ 2 2 * = 2 & > % K @ > -.> 2 & * * & + * + . . @ + + O . O + + + + * & & * 2 & & & & @ + & & & + & @ @ > 1 K ",
"@.< 4 & % % s $ = @ 2 2 = * % @ 1 % > @ = > = > & & & & * * * + . @ + O +   O + + + + & * * & & * & & & @ O & + & & & & @ & K K ",
"@.| 0 & % s & & & = , > = % = % % @ % + & & > & * + * * @ * * + . * O O + +   +   + & & + . @ & @ > & & & + & & & & & & = % K K ",
"s.r = 0 & s Z & > > > = = = 1 K @ @ % @ > * 2 > * * * + @ + * * + * O O + +       O + & * . @ > @ & & & + + & + @ > @ > > @ E & "
};
