/* XPM */
static char *c2hpbmluZytmbG9vciUyODElMjk_[] = {
/* columns rows colors chars-per-pixel */
"64 64 256 2 ",
"   c #150000",
".  c #1C0000",
"X  c #1F0900",
"o  c #250000",
"O  c #2C0000",
"+  c #2C0900",
"@  c #250A02",
"#  c #330000",
"$  c #3B0000",
"%  c #340B00",
"&  c #3C0B00",
"*  c #370A0B",
"=  c #3D1301",
"-  c #3D1B01",
";  c #371506",
":  c #35140F",
">  c #3C2507",
",  c #430200",
"<  c #4B0200",
"1  c #440B01",
"2  c #4B0B01",
"3  c #47090B",
"4  c #530300",
"5  c #530C01",
"6  c #5C0D01",
"7  c #590708",
"8  c #441401",
"9  c #4B1301",
"0  c #441B01",
"q  c #4A1C02",
"w  c #4C1B0B",
"e  c #46170B",
"r  c #541301",
"t  c #5B1401",
"y  c #541A01",
"u  c #5B1B01",
"i  c #571B0C",
"p  c #480C13",
"a  c #4A1916",
"s  c #551C14",
"d  c #561718",
"f  c #580B16",
"g  c #630C01",
"h  c #680600",
"j  c #730B02",
"k  c #641400",
"l  c #6A1500",
"z  c #631B01",
"x  c #6A1B00",
"c  c #64180E",
"v  c #711C00",
"b  c #771901",
"n  c #671B16",
"m  c #711915",
"M  c #680C19",
"N  c #4C2301",
"B  c #472608",
"V  c #532403",
"C  c #5C2302",
"Z  c #5D230C",
"A  c #572A06",
"S  c #593308",
"D  c #482317",
"F  c #582718",
"G  c #5B3419",
"H  c #632400",
"J  c #6D2300",
"K  c #68290A",
"L  c #742502",
"P  c #732B02",
"I  c #7C2C02",
"U  c #78290A",
"Y  c #65330C",
"T  c #793506",
"R  c #6B2413",
"E  c #6B2A1C",
"W  c #672716",
"Q  c #762918",
"!  c #6D331B",
"~  c #683717",
"^  c #773716",
"/  c #4B1B24",
"(  c #571829",
")  c #631A24",
"_  c #721C2C",
"`  c #572827",
"'  c #5A3825",
"]  c #532F32",
"[  c #682827",
"{  c #782A27",
"}  c #693727",
"|  c #73342C",
" . c #743B2C",
".. c #793926",
"X. c #682933",
"o. c #772C37",
"O. c #683A36",
"+. c #783838",
"@. c #6C441D",
"#. c #78451B",
"$. c #704508",
"%. c #5C4127",
"&. c #684628",
"*. c #784528",
"=. c #784835",
"-. c #765137",
";. c #593145",
":. c #763943",
">. c #6B3448",
",. c #7D4445",
"<. c #6B424A",
"1. c #832B00",
"2. c #852804",
"3. c #833303",
"4. c #873708",
"5. c #943607",
"6. c #852A18",
"7. c #863818",
"8. c #963818",
"9. c #922F12",
"0. c #862B26",
"q. c #893828",
"w. c #943726",
"e. c #862A3A",
"r. c #863938",
"t. c #923737",
"y. c #A63C2C",
"u. c #974408",
"i. c #85441A",
"p. c #8B461A",
"a. c #964819",
"s. c #8C4A12",
"d. c #A85719",
"f. c #B15219",
"g. c #894728",
"h. c #974927",
"j. c #8A5427",
"k. c #995729",
"l. c #854B33",
"z. c #874739",
"x. c #954B37",
"c. c #8A5737",
"v. c #9B5333",
"b. c #9C5B33",
"n. c #975739",
"m. c #A54E24",
"M. c #A7572A",
"N. c #B55B29",
"B. c #A35534",
"V. c #A85A38",
"C. c #B55938",
"Z. c #A64932",
"A. c #97623A",
"S. c #926637",
"D. c #B6672A",
"F. c #AD633B",
"G. c #AB6A3C",
"H. c #A66537",
"J. c #B3643C",
"K. c #B46C3C",
"L. c #BC6B3D",
"P. c #B96737",
"I. c #BA743A",
"U. c #AC7232",
"Y. c #B7631D",
"T. c #C4631D",
"R. c #C15F31",
"E. c #C26627",
"W. c #C46A3B",
"Q. c #C66B37",
"!. c #C57438",
"~. c #D37735",
"^. c #CD5B1D",
"/. c #863948",
"(. c #8C3347",
"). c #884845",
"_. c #8A5845",
"`. c #965C43",
"'. c #985A47",
"]. c #8F5455",
"[. c #AB5D42",
"{. c #A35A47",
"}. c #B35B44",
"|. c #AE5B4E",
" X c #8E6347",
".X c #9B6443",
"XX c #976648",
"oX c #8B6354",
"OX c #9A6854",
"+X c #9D7658",
"@X c #9A734C",
"#X c #A26243",
"$X c #AA6342",
"%X c #A56B43",
"&X c #AC6B43",
"*X c #AC6C4B",
"=X c #A6654B",
"-X c #B46343",
";X c #B36C43",
":X c #BB6C45",
">X c #B36C4D",
",X c #BB6C4B",
"<X c #B76348",
"1X c #AC7445",
"2X c #AB724B",
"3X c #A8774A",
"4X c #B37445",
"5X c #BB7245",
"6X c #B4744B",
"7X c #BB744C",
"8X c #BC7B4C",
"9X c #B5794B",
"0X c #AB6554",
"qX c #A76A56",
"wX c #B46D54",
"eX c #BB6C52",
"rX c #BA6D5A",
"tX c #B86758",
"yX c #AC7354",
"uX c #AA7659",
"iX c #B37354",
"pX c #BC7454",
"aX c #B47D54",
"sX c #BB7B53",
"dX c #BC745A",
"fX c #B7795B",
"gX c #9C7464",
"hX c #AB7464",
"jX c #B57463",
"kX c #B97865",
"lX c #B37169",
"zX c #C56B47",
"xX c #C37B4D",
"cX c #C67549",
"vX c #D3744B",
"bX c #C36C58",
"nX c #C37454",
"mX c #C47C55",
"MX c #C3745B",
"NX c #C37D5B",
"BX c #CB7958",
"VX c #D37959",
"CX c #D46E4C",
"ZX c #C77B64",
"AX c #CE7765",
"SX c #E37E46",
"DX c #BA8456",
"FX c #B48250",
"GX c #B58268",
"HX c #BD8672",
"JX c #C8824A",
"KX c #C68458",
"LX c #D18553",
"PX c #C98467",
"IX c #D3876C",
"UX c #E4804E",
/* pixels */
">., g 8X. &.c.# E >.( O tXU O FXN O t.(.o e %X$ 4.V.# d ).f # `.| $ K.u % O.X.# z P.$ ..OXO i l.w O [.T $ 6Xq # +.o.O s hXO T D.",
"$ , 7.G.  &.9X$ # < $ $ tXQ O FXS O , < o =.2XO g.$X# O 3 # $ wX[ O JXP O p 3 # T 5XO +.lX# O 1 O , >X^ $ =X#.O , 3 O | uX# g.U.",
"4 v.-Xg.@ D =XdXW o Q zX#X9 O =.6Xb.# $ '.tX*.@ y *XeXQ o } ;XH.8 o i.pX'.$ $ v.9X*.o a $X<XE O Q eX%X8 O _.>Xx.O # V.>Xl.O y &X",
"J 7Xz # # O $ '.`.O D.M.# o $ # J sX= F bXl O % o $ V.{.o oXb., $ 1 O K AX6 l PXV o o o , <Xn.O V.B.O o % O t PX1 q PX5 # , O # ",
"J 4X& 1 0.| O } .X# U.H O O.r.5 # jXe d 0X$ k 7.! # 6.'.$ gXW $ 6.0.;   OXu z -XO a q.0.& ~  XO >XP o *.r.2 $ uXq A @XO j y.~ . ",
"J G.O 3 r.0.# =.c.@ D.T # } +.4 , fX1 9 >X, g r.E # g.v.O qX! % 6.r.> ; GX1 t 5XO a r.6.$ ^ XXo -XU o ~ | 7 , qX% N 3X$ j 0.F X ",
"3.L.2 $ 1 $ # g. XO T.u.O O * $ h L.N B vXg # & O O a.M.$ `.a.$ $ r O 1 ,X6 L cX8   : $ , m. X# C.a.# X @ O 4 NXN V cX4 $ 2 O . ",
"4 V.nX! O 1 =XpX@.o 3.vX X* # 7.W.U.o % N.zX..O e  X8XI # ^ FXM.1 O  .kXC.< 4 F.uXO.  s V.zX^ O 9.CXb.- . =.lXV.% O D.Q.q.O a oX",
"# O U ,X7X-Xk.2 O 8 o % '.kXdXwXR # 9 1 O Q AX<XkXl., $ 6 # & n.ZX|.gXG O 5 < # | hXrXwX X% O 5 $ < b.iXdX%XA o 1 1 o ! bXbXuX_.",
"lX..# , g.H $ , #XhXoX% # z U $ # E iXyX! # , w.5 $ 2 #XZXv.1 O 4 `.O o #.%X4X^ O < w.R o = .XDX{.< $ x ^ 1 + S jX0X .O $ x.C O ",
" .iXN.g . O h.BXn.F .XwX7.$ $ H ;X7XK ^ NXwX2 # & g.iX{.t V.KX#.# # g <XyX~ ~ kX,Xx O # l.MXc.y 0XtXg.$ o N G.FXn o.AX|.N o , m.",
"o 1 N.cX@ <.,Xb $ o O K IXP # jXj.5 # # $ c.yXO ^ *XY O $ , x DX&.O VXC.& . X , M.K.# } MXv O $ # Q BXT = 3Xj.& $ # < v.uX% I zX",
"` O x :Xo } v., 2 } : . J.5., iX0 O _ _ . B fX< h.F.o & t.h O @XS O zX4 O ` } $ g :XO #.XXO r [ 8 O B.2., 4XN o d o.o F uX# a.Y.",
"&.# l L.o ).[.$ Q ).] O m.1.< 2X0 % (.e.: B %X$ I v.o ' e._ , c.@.O nXl a O. ., v cXO @.A.# { r.' O <X9., xXN % ).+.O D hX# 5.^.",
"D o b L.o } V., , ` o o ,X5.$ 4Xq o _ ) o N DX# p.F.O y [ , # G.S o vXh   ] a $ 2.-XO @.V., $ [ O O V.U 4 wXV O ) p O F XX$ 2.^.",
"o Z J.-Xo O.ZXw.$ O 2 _.pXJ , >X%XF O O | 2X XO K ZXi.# O $ v.KXG @ <X<XD . O K <XV.O } 7Xh.# O 1 ^ IXx $ qX{.H O O Z 2X.X$ 2.vX",
"C 9Xg.$ # # { uX Xo M.I.Z o # , v.iX= e BXh., o . F BXh.# OX%Xu # O 9 c.iXr y KXz.$ # O R DX*.# V.:XH # o % v.ZX1 w IX7., O O ` ",
"J G.O # | d O +._.$ D.I o ] X.$ , 6X0 N cX, $ :.` o 7.M.# '.^ # ) :.. @ BXg J G.o O >.( O #.%X# W.I # w ` # # >Xr i }.< 4 E `   ",
"3.4XO D  .! # | '.# Y.3.o >.,.7 $ KX= 0 7X, c [ O.o w.-XO  X! , e.+.> X <Xh j 9X. : ).:.% ~ `., C.7.$ } =.i , ZX1 w dX, t r.O.  ",
"z $X# O ^ y O l.'.# P.7.O a E # < 6X- N 6X, 4 ! q O 7.B.O @Xi.$ g E X @ AXh v 5Xo @ E 7 o #.n.$ C.7.O V Z # < eX8 i fX, , R 8 . ",
"G kXv.4 O O T ;X,.O h.MX| # O 4 N.;X; > NXh.$ O $ U nXj.  -.7Xb $ O 8 c.lX4 t kXc.9 O O 2.bX_.O '.<XP O o 1 Z.MX% B 8Xh.k # O G ",
"O 2 [.pX^ b.JX^ # o & 7.lX'.g.6XB.u . . 6 :X2Xj.b.>Xq., X @ q.BX{.^ DXA.2 $ # t H.1Xj.#XAX0.O o O g.sXj.z.lXV.k o o q B.0Xz.n.sX",
"8.6 O ~ uXc.2 O x V.1.$ ,  X=XK O # a.m., O Y XXl.2 $ x G.V O 1 _.hXN O 5 a.w.< O Y 2Xl.O O 6.M.z # 2 g.0XQ $ $ b.#.# O ! wXv., ",
"}.nX~ o 1 O $ H.pXV.L.F.2 o $ O &.hX-XC.MX! O o O 1 <XeXk.aXqX, O o # ^ K.5X$XdX^ # $ # ; OX-XV.yXXX, , , $ { kXA.1XDXY o $ $ g ",
"# ..Q.d.# ` cXM.8 o , =XsXz $ .XaX~ # , { fXS.o J MX{.2 O 1 {.iXV O N.zXE o o ^ vXd.# K ZX{.r o = _.VXb $ qXfXU O O ^ 2XoXo J SX",
"* O 2.Q.o =.P.$ # i # # C.3.$ FXA O 4 f O W 3XO a.V.O # ) & # 2X&.# CX2.O a B @ b Q.$ *.F.# O [ o O N.2., .XC # 9 9 # ! GX  5.f.",
"z., g xX. %.%X, U x.F # ,XI O 3Xq # t.e.O - fX$ I =XO d r.n O .X' o vXj $ ,..., l cXO &. X@ Q (.` O }.1.% FXN # ..)., e +Xo u.T.",
"{ $ k ;X  %.H.$ h Q 3 O V.T # uX8 # 0.o.o D iX, 7.#XO s e.c & .X&.o zX4 # O.H , l ;XO &.j.@ m { p O V.9.$ U.N o | _ # p gX@ 3.T.",
"o $ m.zX+ G sXk $ $ O i bX6.$ 3Xp.$ o O # l.wX# 7.iX8 O $ # k 6XG % bXy.O o * , M.C.+ &.5Xk O * o R eXU $ 3Xj.$ $ # # '.GXo T zX",
"q '.-XU o = b.7X} o [ kX{.2 O ^ sX#X; ; b.&X0.* 7 =X9X^ # ..>Xb.# # 0.bXOXO 1 #X,XR . = B.cX[ o *.wXx.4 O } &Xb.O p 0X{.} o t v.",
"J 6X1 O , 1 $ z._.O -Xh.O O e $ < kXN N I.t # p O o k.d.$ #Xn.# 2 2 o 8 nXv t aX& O 2 < o c.OX$ K.s.$ < p o 3 PXe e PX5 # 5 , $ ",
"I H.O D +.+.O +.OX# Q.I o =.+.3 $ jX% N !., 7 <.;.o u.d.$ dXK O { +.: + W.h k yX. a /.[ . &.n.$ d.4.O X.,.d $ dX8 q ;X, r =.+.O ",
"I ;XO * +.{ #  .OX# T.1.. O.:., , wX= A I.$ p >.;.. s.d.$ {.! # { | : % C.j l 6Xo * :.| O ~ %X$ D.v # ] >.d , I.N q zX< 2 =./ O ",
"P >Xy # O # $ .Xl.$ P.V.% . # # c IXq = LXv # 3 o # k.h.$ qX`.# # $ o F IXj v NXw o $ # 1 .Xn.$ P.C.# # % O x KX0 q AXb # O O # ",
", z.MXm.& T 5XU.w o e OXkXR 5 B.BX*.  @ '.bXh.4 J >XrXW o F #X8XP u v.uX,.# $ g.KXv.2 H cXF.F o r dXMXU 2 c.fXg.  @ z.MXv.2 ^ iX",
"3 # k H.FX3XT # # } # O ..rX,XH.5 # F D # 6 K.JXK.T $ , w o , T sX$X#Xu O ` t # r k.DX4Xi.# # s $ # q.,X2Xb.y O e D o i =XdX;XT ",
"BXk.$ O G % O T 0X,XR.b # q V o # k.DX1Xu.5 o B - # P !.JXA.T O = F # < h.zX,Xb.$ O ~ % o Y ,XZXwXK # 9 F O r k.IXrXh.& O F 1 # ",
"u H.1X~ . e '.ZXg.7 8.CX#X% o &.aX%Xr 5 I.9XG X + c.!.4.9 i.K.&X# o T U.-Xb z b.FX^ o # @XfXa.< ..GXA.1 o | dXV.4 6 K.DX! o 2 V.",
"O O a.NXo #.NX, O O , 4 wX7.2 6X*.# # # O  .fX$ p.eXr O o $ , rX} O JX4.O O O # 4.xX$ ..sX$ # , o = cX3.$ hXr.# $ # o #.*X$ h.W.",
"G $ 6 -X# ~ V.$ s =.a O =XU $ 6Xy O o.o.O D yX$ 9.C.O d +.d $ |. .O I.t O ;.} # x P.# ..b.$ d O.: O N.1., uXw # X.+.. 0 sX, 2.E.",
"r.< t 4Xo -.S.O E r.X.O [.I $ yXD # (.e.O D hX# 2.}.O X.o.{ #  X&.o 7Xk , ,.| , z I.O *.`.O { r.] o N.5.$ sX8 # /.o.; > wX, 3.Y.",
"< # P DXO O.XX# , f $ # eX7.# uXq o 7 M O [ uX$ g.[.O $ 7 $ # jX' O NXU # p f # P &XO &.qX$ # d o $ G.4.< 2XY # f 3 . G uX$ a.D.",
"O l.,X7.. ` bX}.6 # c {.rXu o S.1Xi.O # q.wX-.. A *X}.z O A M.5Xw O v.bX).o # g.7Xg.O ` =X'.n # s XX&Xy o _.-X7.$ # h.*X_.. H :X",
"A kXQ $ o # h |.z.$ }.V.2 O O , 4.DX0 q nX4.# o O 9 J.m.O S.H.4 # O # U kXy 5 PXU , O O 9 =X'.O {.n.5 $ o & 6.nX2 r VXU # O # r ",
"L F.# 2 [ n o =. XO K.P O [ [ < $ qXq S ;X$ 4 Q R $ T B.o OX! # ) X.+ & &Xk H 3Xo , _ ) # *.c.$ F.U $ U Q , $ hXe F OX# 2 R R # ",
"v 7X# 1 t.t.o &.XXO D.$.% +./.7 , uX% 0 6X, k r.o.# i.$XO 3X..# o.).a % :X6 t 1XO a ].+.o *.n.# F.4.$ q.x.r $ hX+ D uX$ z g.[ # ",
"T K.$ # d 1 # g.A.O D.u.O # d O , mXN N 5X4 # d * o 4.H.# `.i.O < f o o K.x z 8X$ o p 3 O l.A.# J.9.# 3 a O 4 xX- B AX< O F % o ",
"y $X*Xz O $ x.dX^ # s.9Xg.$ O c J.8XO 8 pXV.n # O _.aX7.# x.9Xg., # F qX9X2 2 7XqXV O , *.kX*.# a.BXg.O # H V.I.= = bX|.s . % ,.",
"O O j.pXV.*XtXz O # o V 1XG.<XdXg.# % o O z.BXB.,X%X9 O 4 $ i &X,X[.wXl.# O # $ v.5XN.K.uXB o $ O u 0XrXV.:Xn.# # # O `.DXk.eX0X",
".Xy # t V.^ # # i.%X=.# , 4.p.t O y OXqXw O t M.I $ # l.bXq.# $ P B.t # y qXOX1 # 6 a.4.o o *.yX~ $ # q.B.5 O 9 OXn.Z o $ H.8., ",
"n.*Xh.< O o ^ ;XqX..%X9Xk , , 1 k.KXl.z.NXj.O o o A 7X:X^ wX4XV O o < M.MXx.c.KXp.2 o O ^ cX'.*.%X;XJ # o 1 j.KXx.z.MXv.; O $ b ",
"# u :X;Xo G 4Xs.$ O , i.ZXQ # 4XS.C # $ k &XuXo } kX4., $ $ g.KX%.. K.C.c # # t K.2XO D pX7., $ , 7.xXK O OXA.u O $ x [.oXo L SX",
"d # t U.$ z.H.O < { * o 0X7.$ 6XN . m { o q jX$ w.}.O & { , O XX%.. LXk o ` W $ k K.# -.XXO 7 Q , O P.2.$ uXS O c n # i lXO 8.D.",
":.$ z K.# ..k.# n :.] o B.L < 3XN % t.e.% 0 iX< 8.Z.# ' o.{ $  X' . cXz : %.:.4 L cXO &.oX# m q.` O W.b $ 3X0 & r.r.$ w hXO 4.D.",
";.o x cX$ ! F., 7 O.: . wX6.$ 6X9 O { n o A aX$ 8.m.o 0 | 2 # *X' ; W.g o ] ] O g W.O  .'.# 2 +.* O V.1.7 ,Xq o X.( # i qX, ^ N.",
"o 9 B.,X# } xXL # # o W ZXQ # fXn.< # # 8 S.2X# ^ NXH O $ # q.wX} o zXB.$ o o 9 J.-Xo *.dXQ O o $ Z DXT , rXc.8 O % 1 '.qX# ^ BX",
"t dX`.s O # l.jX).# d.L...O O u V.DX2 9 8Xj.Z o O *.9Xs.$ x.>X^ O O Z =XqX, t iXXX3 . # 8.mX=.. h.nX~ * O p %X6X2 5 KXb.r # $ ..",
"1.xXo o [ 2 O -.].$ Y.3.O / s O 1 *X1 y cX, # ( * O i.m.$ '.g.# 4 c o % ZXk l 8Xo O / , $ T @Xo 5X3.o : ( O , sXr z H.$ , i s o ",
"g V.o D t.0.O } OX$ E.u.O O.+.Z # kXe 8 xX< M /.>.# i.V.$ qX} # w.t.; X hX4 v J.O ` /.{ 8 $.-.O h.u.O } <.a $ >X5 y 3X# l w.} o ",
"3.9Xo # { m O =._.$ d.T o ] | , , wX; B 5X< < +.` O 7.v.# ]...$ j 0.+   hXt z 5Xo o (.m O @.@Xo H.i.O E O., < nXw 8 1X# < q.a o ",
"C dX^ $ O # 5 $X'.& j.H.9 O # $ 8.bX> B I.4.# O o q !.M.o oX0Xj , $ = *.lX7 0 DX#.$ , < z U.,.. '.#X9 # # , 7.NX: ` KX4.< # O w ",
"O Y dX>XK l.KXa., O 1 k.jX .! iXzX6.o o T JXG.; -.1Xd.1 . N h.bXq.K S.3Xm , % S %X*Xm q.NXj.% # 9 '.DXT R =XV.^   o L :X{.[ =.GX",
"x $ # *.3XA.Y O 2 h.6 $ Y OX X*.O # T T # # l.HX'.R O 2 s.q # E '.HX,.@ < 1.x $ # z.rX{.y # k 2.4 # A c.DXl.$ O i.P # 2 z.jX XA ",
"cX$X& o y $ . =.4XL.zXq.# O B . B A.~.E.#Xw O 2 , # +.yXI.U...o & #   0 d.~.vXV.8 . 1 , O ..zXCXzX7.# % = o e OXL.!.#X1 # r # . "
};
